# xmcd
#
# Track frame offsets: 
#        150
#        16389
#        33101
#        50165
#        65515
#        91337
#        109301
#        129808
#        151930
#        174826
#        191900
#
# Disc length: 2908 seconds
#
# Revision: 0
# Processed by: cddbd v1.5.2PL0 Copyright (c) Steve Scherf et al.
# Submitted via: ExactAudioCopyFreeDBPlugin 1.0
#
DISCID=890b5a0b
DTITLE=Joan Baez - Joan Baez: 75th Birthday Celebration
DYEAR=2016
DGENRE=Singer/songwriter
TTITLE0=God is God 
TTITLE1=There But For Fortune
TTITLE2=Freight Train
TTITLE3=Blackbird
TTITLE4=She Moved Through the Fair
TTITLE5=Catch the Wind
TTITLE6=Hard Times Come Again No More
TTITLE7=Deportee (Plane Wreck at Los Gatos)
TTITLE8=Seven Curses
TTITLE9=Swing Low, Sweet Chariot
TTITLE10=Oh Freedom - Ain't Gonna Let Nobody Turn Me Around
EXTD=
EXTT0=
EXTT1=
EXTT2=
EXTT3=
EXTT4=
EXTT5=
EXTT6=
EXTT7=
EXTT8=
EXTT9=
EXTT10=
PLAYORDER=
